<svg xmlns="http://www.w3.org/2000/svg" xmlns:xlink="http://www.w3.org/1999/xlink" width="6912" zoomAndPan="magnify" viewBox="0 0 5184 2592.000001" height="3456" preserveAspectRatio="xMidYMid meet" version="1.0"><defs><clipPath id="a0637dd05e"><path d="M 1823 0 L 4224 0 L 4224 2591 L 1823 2591 Z M 1823 0 " clip-rule="nonzero"/></clipPath><clipPath id="b40acd5b62"><path d="M 3951.082031 -301.933594 L 4223.136719 -103.996094 L 2095.847656 2819.855469 L 1823.792969 2621.917969 Z M 3951.082031 -301.933594 " clip-rule="nonzero"/></clipPath><clipPath id="0c723dd527"><path d="M 1 0 L 2400.371094 0 L 2400.371094 2591 L 1 2591 Z M 1 0 " clip-rule="nonzero"/></clipPath><clipPath id="0e9a6c8a9d"><path d="M 2128.082031 -301.933594 L 2400.136719 -103.996094 L 272.847656 2819.855469 L 0.792969 2621.917969 Z M 2128.082031 -301.933594 " clip-rule="nonzero"/></clipPath><clipPath id="9286af954b"><rect x="0" width="2401" y="0" height="2591"/></clipPath><clipPath id="71ce240136"><path d="M 2506 0 L 4999 0 L 4999 2591 L 2506 2591 Z M 2506 0 " clip-rule="nonzero"/></clipPath><clipPath id="b5050d3cbc"><path d="M 4726.53125 -230.851562 L 4998.589844 -32.914062 L 2778.371094 3018.664062 L 2506.316406 2820.726562 Z M 4726.53125 -230.851562 " clip-rule="nonzero"/></clipPath><clipPath id="61a5d57130"><path d="M 0.113281 0 L 2492.75 0 L 2492.75 2591 L 0.113281 2591 Z M 0.113281 0 " clip-rule="nonzero"/></clipPath><clipPath id="389b18b38f"><path d="M 2220.53125 -230.851562 L 2492.589844 -32.914062 L 272.371094 3018.664062 L 0.316406 2820.726562 Z M 2220.53125 -230.851562 " clip-rule="nonzero"/></clipPath><clipPath id="4d7c96e402"><rect x="0" width="2493" y="0" height="2591"/></clipPath><clipPath id="fd4f620020"><path d="M 2144 0 L 4637 0 L 4637 2591 L 2144 2591 Z M 2144 0 " clip-rule="nonzero"/></clipPath><clipPath id="b7af14ef82"><path d="M 4364.460938 -301.933594 L 4636.519531 -103.996094 L 2416.300781 2947.582031 L 2144.246094 2749.644531 Z M 4364.460938 -301.933594 " clip-rule="nonzero"/></clipPath><clipPath id="0b1bc3b659"><path d="M 0.09375 0 L 2492.730469 0 L 2492.730469 2591 L 0.09375 2591 Z M 0.09375 0 " clip-rule="nonzero"/></clipPath><clipPath id="eff2c251bc"><path d="M 2220.460938 -301.933594 L 2492.519531 -103.996094 L 272.300781 2947.582031 L 0.246094 2749.644531 Z M 2220.460938 -301.933594 " clip-rule="nonzero"/></clipPath><clipPath id="09c2f46c08"><rect x="0" width="2493" y="0" height="2591"/></clipPath><clipPath id="9506112c00"><path d="M 2936 0 L 5183 0 L 5183 2591 L 2936 2591 Z M 2936 0 " clip-rule="nonzero"/></clipPath><clipPath id="3acebc04d6"><path d="M 5063.640625 -135.613281 L 5335.699219 62.324219 L 3208.410156 2986.175781 L 2936.355469 2788.234375 Z M 5063.640625 -135.613281 " clip-rule="nonzero"/></clipPath><clipPath id="4cf473c784"><path d="M 0.265625 0 L 2247 0 L 2247 2591 L 0.265625 2591 Z M 0.265625 0 " clip-rule="nonzero"/></clipPath><clipPath id="24d1e18008"><path d="M 2127.640625 -135.613281 L 2399.699219 62.324219 L 272.410156 2986.175781 L 0.355469 2788.234375 Z M 2127.640625 -135.613281 " clip-rule="nonzero"/></clipPath><clipPath id="4d5bbbcf1f"><rect x="0" width="2247" y="0" height="2591"/></clipPath><clipPath id="980e46f07d"><path d="M 3255 0 L 5183 0 L 5183 2591 L 3255 2591 Z M 3255 0 " clip-rule="nonzero"/></clipPath><clipPath id="94d31cd4be"><path d="M 5383.160156 -9.546875 L 5655.214844 188.390625 L 3527.929688 3112.238281 L 3255.871094 2914.300781 Z M 5383.160156 -9.546875 " clip-rule="nonzero"/></clipPath><clipPath id="40f45e5403"><path d="M 1 0 L 1928 0 L 1928 2591 L 1 2591 Z M 1 0 " clip-rule="nonzero"/></clipPath><clipPath id="77f3288975"><path d="M 2128.160156 -9.546875 L 2400.214844 188.390625 L 272.929688 3112.238281 L 0.871094 2914.300781 Z M 2128.160156 -9.546875 " clip-rule="nonzero"/></clipPath><clipPath id="0225891372"><rect x="0" width="1928" y="0" height="2591"/></clipPath></defs><path fill="#ffffff" d="M 1 0 L 5183 0 L 5183 2591 L 1 2591 Z M 1 0 " fill-opacity="1" fill-rule="nonzero"/><path fill="#f4ebdc" d="M 1 0 L 5183 0 L 5183 2591 L 1 2591 Z M 1 0 " fill-opacity="1" fill-rule="nonzero"/><g clip-path="url(#a0637dd05e)"><g clip-path="url(#b40acd5b62)"><g transform="matrix(1, 0, 0, 1, 1823, -0.000000000000208807)"><g clip-path="url(#9286af954b)"><g clip-path="url(#0c723dd527)"><g clip-path="url(#0e9a6c8a9d)"><path fill="#f68539" d="M 2128.082031 -301.933594 L 2400.136719 -103.996094 L 273.078125 2819.542969 L 1.019531 2621.605469 Z M 2128.082031 -301.933594 " fill-opacity="1" fill-rule="nonzero"/></g></g></g></g></g></g><g clip-path="url(#71ce240136)"><g clip-path="url(#b5050d3cbc)"><g transform="matrix(1, 0, 0, 1, 2506, -0.000000000000208807)"><g clip-path="url(#4d7c96e402)"><g clip-path="url(#61a5d57130)"><g clip-path="url(#389b18b38f)"><path fill="#502314" d="M 2220.53125 -230.851562 L 2492.589844 -32.914062 L 272.746094 3018.148438 L 0.691406 2820.210938 Z M 2220.53125 -230.851562 " fill-opacity="1" fill-rule="nonzero"/></g></g></g></g></g></g><g clip-path="url(#fd4f620020)"><g clip-path="url(#b7af14ef82)"><g transform="matrix(1, 0, 0, 1, 2144, -0.000000000000208807)"><g clip-path="url(#09c2f46c08)"><g clip-path="url(#0b1bc3b659)"><g clip-path="url(#eff2c251bc)"><path fill="#d82300" d="M 2220.460938 -301.933594 L 2492.519531 -103.996094 L 272.675781 2947.066406 L 0.621094 2749.128906 Z M 2220.460938 -301.933594 " fill-opacity="1" fill-rule="nonzero"/></g></g></g></g></g></g><g clip-path="url(#9506112c00)"><g clip-path="url(#3acebc04d6)"><g transform="matrix(1, 0, 0, 1, 2936, -0.000000000000208807)"><g clip-path="url(#4d5bbbcf1f)"><g clip-path="url(#4cf473c784)"><g clip-path="url(#24d1e18008)"><path fill="#1a8639" d="M 2127.640625 -135.613281 L 2399.699219 62.324219 L 272.636719 2985.859375 L 0.582031 2787.921875 Z M 2127.640625 -135.613281 " fill-opacity="1" fill-rule="nonzero"/></g></g></g></g></g></g><g clip-path="url(#980e46f07d)"><g clip-path="url(#94d31cd4be)"><g transform="matrix(1, 0, 0, 1, 3255, -0.000000000000208807)"><g clip-path="url(#0225891372)"><g clip-path="url(#40f45e5403)"><g clip-path="url(#77f3288975)"><path fill="#feaa00" d="M 2128.160156 -9.546875 L 2400.214844 188.390625 L 273.15625 3111.925781 L 1.101562 2913.988281 Z M 2128.160156 -9.546875 " fill-opacity="1" fill-rule="nonzero"/></g></g></g></g></g></g></svg>